HIERARCHY
ROOT Hips
{
  OFFSET 5.84602e-005 68.8428 3.50346
  CHANNELS 6 Xposition Yposition Zposition Zrotation Xrotation Yrotation
  JOINT Spine
  {
    OFFSET 0 8.597 -4.6522
    CHANNELS 3 Zrotation Xrotation Yrotation
    JOINT Spine1
    {
      OFFSET 0 7.8454 0.4098
      CHANNELS 3 Zrotation Xrotation Yrotation
      JOINT Spine2
      {
        OFFSET 0 9.7078 -2.1609
        CHANNELS 3 Zrotation Xrotation Yrotation
        JOINT Neck
        {
          OFFSET 0 21.8761 -0.4549
          CHANNELS 3 Zrotation Xrotation Yrotation
          JOINT Head
          {
            OFFSET 0 12.3537 3.3602
            CHANNELS 3 Zrotation Xrotation Yrotation
            End Site
            {
              OFFSET 0.0001 18.9506 0.5657
            }
          }
        }
        JOINT LeftShoulder
        {
          OFFSET 2.2086 21.1115 7.2329
          CHANNELS 3 Zrotation Xrotation Yrotation
          JOINT LeftArm
          {
            OFFSET 13.1193 3.0282 -4.8998
            CHANNELS 3 Zrotation Xrotation Yrotation
            JOINT LeftForeArm
            {
              OFFSET 27.4081 -0.0973053 -0.2375
              CHANNELS 3 Zrotation Xrotation Yrotation
              JOINT LeftHand
              {
                OFFSET 22.8641 0.0662994 -0.1369
                CHANNELS 3 Zrotation Xrotation Yrotation
                JOINT LeftHandIndex1
                {
                  OFFSET 8.8614 0.775009 2.4612
                  CHANNELS 3 Zrotation Xrotation Yrotation
                  JOINT LeftHandIndex2
                  {
                    OFFSET 3.3146 -0.808304 0.5841
                    CHANNELS 3 Zrotation Xrotation Yrotation
                    JOINT LeftHandIndex3
                    {
                      OFFSET 2.2628 -0.552002 0.3989
                      CHANNELS 3 Zrotation Xrotation Yrotation
                      End Site
                      {
                        OFFSET 1.6102 -0.4807 0.2612
                      }
                    }
                  }
                }
                JOINT LeftHandMiddle1
                {
                  OFFSET 8.9937 0.895004 0.2143
                  CHANNELS 3 Zrotation Xrotation Yrotation
                  JOINT LeftHandMiddle2
                  {
                    OFFSET 4.0984 0.0113983 -0.0242
                    CHANNELS 3 Zrotation Xrotation Yrotation
                    JOINT LeftHandMiddle3
                    {
                      OFFSET 2.2716 0.00689697 -0.0138001
                      CHANNELS 3 Zrotation Xrotation Yrotation
                      End Site
                      {
                        OFFSET 2.0404 -0.1441 0.0027
                      }
                    }
                  }
                }
                JOINT LeftHandRing1
                {
                  OFFSET 8.5234 0.597198 -2.0164
                  CHANNELS 3 Zrotation Xrotation Yrotation
                  JOINT LeftHandRing2
                  {
                    OFFSET 3.7188 -0.188293 -0.2328
                    CHANNELS 3 Zrotation Xrotation Yrotation
                    JOINT LeftHandRing3
                    {
                      OFFSET 2.1191 -0.106598 -0.1332
                      CHANNELS 3 Zrotation Xrotation Yrotation
                      End Site
                      {
                        OFFSET 1.8737 -0.2304 -0.0886
                      }
                    }
                  }
                }
                JOINT LeftHandPinky1
                {
                  OFFSET 7.9094 -0.601089 -3.4825
                  CHANNELS 3 Zrotation Xrotation Yrotation
                  JOINT LeftHandPinky2
                  {
                    OFFSET 2.2874 -0.477005 -0.6314
                    CHANNELS 3 Zrotation Xrotation Yrotation
                    JOINT LeftHandPinky3
                    {
                      OFFSET 1.6774 -0.349396 -0.4633
                      CHANNELS 3 Zrotation Xrotation Yrotation
                      End Site
                      {
                        OFFSET 1.4888 -0.4091 -0.3416
                      }
                    }
                  }
                }
                JOINT LeftHandThumb1
                {
                  OFFSET 1.833 -1.3875 1.3896
                  CHANNELS 3 Zrotation Xrotation Yrotation
                  JOINT LeftHandThumb2
                  {
                    OFFSET 3.4129 -1.121 2.5732
                    CHANNELS 3 Zrotation Xrotation Yrotation
                    JOINT LeftHandThumb3
                    {
                      OFFSET 2.2474 -0.804199 1.6192
                      CHANNELS 3 Zrotation Xrotation Yrotation
                      End Site
                      {
                        OFFSET 1.6527 -0.5689 1.1317
                      }
                    }
                  }
                }
              }
            }
          }
        }
        JOINT RightShoulder
        {
          OFFSET -2.2086 21.1115 7.2329
          CHANNELS 3 Zrotation Xrotation Yrotation
          JOINT RightArm
          {
            OFFSET -13.1216 3.0287 -4.9007
            CHANNELS 3 Zrotation Xrotation Yrotation
            JOINT RightForeArm
            {
              OFFSET -27.4081 -0.0973053 -0.2375
              CHANNELS 3 Zrotation Xrotation Yrotation
              JOINT RightHand
              {
                OFFSET -22.8641 0.0664063 -0.1369
                CHANNELS 3 Zrotation Xrotation Yrotation
                JOINT RightHandIndex1
                {
                  OFFSET -8.8614 0.774994 2.4612
                  CHANNELS 3 Zrotation Xrotation Yrotation
                  JOINT RightHandIndex2
                  {
                    OFFSET -3.3146 -0.808304 0.5841
                    CHANNELS 3 Zrotation Xrotation Yrotation
                    JOINT RightHandIndex3
                    {
                      OFFSET -2.2628 -0.552002 0.3989
                      CHANNELS 3 Zrotation Xrotation Yrotation
                      End Site
                      {
                        OFFSET -1.6102 -0.4807 0.2612
                      }
                    }
                  }
                }
                JOINT RightHandMiddle1
                {
                  OFFSET -8.9937 0.894989 0.2143
                  CHANNELS 3 Zrotation Xrotation Yrotation
                  JOINT RightHandMiddle2
                  {
                    OFFSET -4.0984 0.0113983 -0.0242
                    CHANNELS 3 Zrotation Xrotation Yrotation
                    JOINT RightHandMiddle3
                    {
                      OFFSET -2.2716 0.00691223 -0.0138001
                      CHANNELS 3 Zrotation Xrotation Yrotation
                      End Site
                      {
                        OFFSET -2.0404 -0.1441 0.0027
                      }
                    }
                  }
                }
                JOINT RightHandRing1
                {
                  OFFSET -8.5234 0.597198 -2.0164
                  CHANNELS 3 Zrotation Xrotation Yrotation
                  JOINT RightHandRing2
                  {
                    OFFSET -3.7188 -0.188309 -0.2328
                    CHANNELS 3 Zrotation Xrotation Yrotation
                    JOINT RightHandRing3
                    {
                      OFFSET -2.1191 -0.106598 -0.1332
                      CHANNELS 3 Zrotation Xrotation Yrotation
                      End Site
                      {
                        OFFSET -1.8737 -0.2304 -0.0886
                      }
                    }
                  }
                }
                JOINT RightHandPinky1
                {
                  OFFSET -7.9094 -0.601105 -3.4825
                  CHANNELS 3 Zrotation Xrotation Yrotation
                  JOINT RightHandPinky2
                  {
                    OFFSET -2.2874 -0.477005 -0.6314
                    CHANNELS 3 Zrotation Xrotation Yrotation
                    JOINT RightHandPinky3
                    {
                      OFFSET -1.6774 -0.349396 -0.4633
                      CHANNELS 3 Zrotation Xrotation Yrotation
                      End Site
                      {
                        OFFSET -1.4888 -0.4091 -0.3416
                      }
                    }
                  }
                }
                JOINT RightHandThumb1
                {
                  OFFSET -1.833 -1.38751 1.3896
                  CHANNELS 3 Zrotation Xrotation Yrotation
                  JOINT RightHandThumb2
                  {
                    OFFSET -3.41299 -1.12099 2.5732
                    CHANNELS 3 Zrotation Xrotation Yrotation
                    JOINT RightHandThumb3
                    {
                      OFFSET -2.24741 -0.804108 1.6192
                      CHANNELS 3 Zrotation Xrotation Yrotation
                      End Site
                      {
                        OFFSET -1.6527 -0.5689 1.1317
                      }
                    }
                  }
                }
              }
            }
          }
        }
      }
    }
  }
  JOINT RightUpLeg
  {
    OFFSET -9.1966 3.8861 -0.7581
    CHANNELS 3 Zrotation Xrotation Yrotation
    JOINT RightLeg
    {
      OFFSET -0.7359 -41.0265 0
      CHANNELS 3 Zrotation Xrotation Yrotation
      JOINT RightFoot
      {
        OFFSET 0 -40.2855 0
        CHANNELS 3 Zrotation Xrotation Yrotation
        JOINT RightToeBase
        {
          OFFSET 0 -5.6122 11.7359
          CHANNELS 3 Zrotation Xrotation Yrotation
          End Site
          {
            OFFSET 0 0 7.8731
          }
        }
      }
    }
  }
  JOINT LeftUpLeg
  {
    OFFSET 9.1965 3.8864 -0.7581
    CHANNELS 3 Zrotation Xrotation Yrotation
    JOINT LeftLeg
    {
      OFFSET 0.7359 -41.0268 0
      CHANNELS 3 Zrotation Xrotation Yrotation
      JOINT LeftFoot
      {
        OFFSET 0 -40.2855 0
        CHANNELS 3 Zrotation Xrotation Yrotation
        JOINT LeftToeBase
        {
          OFFSET 0 -5.6122 11.7359
          CHANNELS 3 Zrotation Xrotation Yrotation
          End Site
          {
            OFFSET 0 0 7.8731
          }
        }
      }
    }
  }
}
MOTION
Frames:	7
Frame Time:	0.0333333
5.84602e-005 68.8428 3.50346 0 0 -0 0 0 -0 0 0 -0 0 0 -0 0 0 -0 0 0 -0 0 0 -0 0 0 -0 0 0 -0 0 0 -0 0 0 -0 0 0 -0 0 0 -0 0 0 -0 -0.0146107 -8.87603e-005 -2.63497e-007 2.99804e-018 -2.42657e-020 -1.42182e-022 0 0 -0 -0.0187562 -0.001176 5.858e-005 5.06224e-018 3.88251e-019 1.21329e-020 0 0 -0 -0.012269 -0.00324817 0.000675346 -1.74678e-018 3.88251e-019 -0 0 0 -0 0 0 -0 0 0 -0 0 0 -0 0 0 -0 0 0 -0 0 0 -0 0 0 -0 0 0 -0 0 0 -0 0 0 -0 0.0149955 -9.10982e-005 2.64101e-007 -9.69331e-018 1.21329e-020 -4.7394e-023 0 0 -0 0.0189956 -0.00119102 -5.96516e-005 -5.41541e-019 0 2.42657e-020 0 0 -0 0.0122698 -0.00324857 -0.000673756 -2.00796e-019 0 -1.94126e-019 0 0 -0 0 0 -0 0 0 -0 3.39842 1.33031 -0.0637918 -5.65207e-008 0.834868 -0.000436188 -3.39935 -2.16518 -0.0642563 -8.89002e-024 -1.18485e-023 -1.48106e-024 -3.39844 1.35642 0.0640283 -3.18788e-007 0.782166 -0.000588827 3.39931 -2.13858 0.0634662 1.1399e-023 0 -0 
39.7581 -0.878973 8.64455 -0 -72.0011 -0 -0.0122325 1.80157 -0.10902 -0.021049 3.60319 -0.217816 -0.0210491 3.60317 -0.217816 -4.79942e-006 17.9988 5.4955e-006 3.44319e-008 8.99857 1.14345e-007 -12.5289 25.6944 -22.1355 -41.302 8.17275 -5.71627 -0.1266 10.622 -8.7192 -2.47246 37.3919 -19.8491 6.36111e-015 -4.96962e-016 -1.98785e-016 6.36111e-015 -1.98785e-016 -3.97569e-016 6.36111e-015 -2.98177e-016 -1.98785e-016 6.36111e-015 -4.96962e-016 -1.98785e-016 -0.0146151 -9.17728e-005 2.82396e-006 -3.18055e-015 2.98177e-016 -0 6.36111e-015 -4.96962e-016 -1.98785e-016 -0.0187443 -0.00117569 5.82426e-005 -3.18055e-015 0 -0 6.36111e-015 -4.96962e-016 -1.98785e-016 -0.012265 -0.00324693 0.00068172 -4.13804e-033 3.97569e-016 5.96354e-016 6.36111e-015 -4.96962e-016 -1.98785e-016 6.36111e-015 -1.98785e-016 -3.97569e-016 6.36111e-015 -2.98177e-016 -1.98785e-016 13.6735 25.9931 21.902 40.5581 8.11363 5.61984 -0.142484 10.5936 8.56786 2.55033 37.4214 20.1734 -3.18055e-015 -5.96354e-016 3.97569e-016 4.13804e-033 -3.97569e-016 5.96354e-016 1.13796e-032 -1.09332e-015 5.96354e-016 -3.18055e-015 -5.96354e-016 3.97569e-016 0.0149813 -9.24431e-005 -8.39668e-006 3.18055e-015 -9.93923e-016 -1.98785e-016 -3.18055e-015 -5.96354e-016 3.97569e-016 0.0189898 -0.00119237 -6.81548e-005 5.50311e-007 -1.54115e-007 -7.83572e-008 -3.18055e-015 -5.96354e-016 3.97569e-016 0.0122778 -0.00324979 -0.000673083 9.54166e-015 4.96962e-016 -1.98785e-016 -3.18055e-015 -5.96354e-016 3.97569e-016 4.13804e-033 -3.97569e-016 5.96354e-016 1.13796e-032 -1.09332e-015 5.96354e-016 -132.517 -23.8913 -161.228 -170.48 60.2246 166.766 -6.73254 51.7164 -4.02469 3.18055e-015 -6.36111e-015 6.36111e-015 131.111 -12.7977 171.753 171.973 54.5705 171.208 8.61994 53.078 2.78714 5.17512e-008 -2.63255e-007 -5.55596e-008 
39.7604 -0.728615 8.76518 -0 -72.8876 -0 -0.0130912 2.02287 -0.108699 -0.0223605 4.0457 -0.217139 -0.0223605 4.04569 -0.217139 -5.3653e-007 17.6168 -6.96544e-007 -4.74561e-008 8.42416 2.85947e-008 -11.0939 24.9617 -22.4551 -42.1602 8.29893 -5.67871 -0.517562 10.6908 -9.80236 -3.19173 37.3066 -18.8648 9.54166e-015 -4.96962e-016 -1.98785e-016 9.54166e-015 -9.93923e-016 -3.97569e-016 1.27222e-014 -5.96354e-016 1.98785e-016 9.54166e-015 -4.96962e-016 -1.98785e-016 -0.014625 -8.93229e-005 1.3697e-006 6.36111e-015 4.96962e-016 5.96354e-016 9.54166e-015 -4.96962e-016 -1.98785e-016 -0.0187726 -0.00117572 5.71654e-005 3.18055e-015 2.98177e-016 5.96354e-016 9.54166e-015 -4.96962e-016 -1.98785e-016 -0.0122612 -0.00324537 0.000681063 -5.17255e-033 -4.96962e-016 -5.96354e-016 9.54166e-015 -4.96962e-016 -1.98785e-016 9.54166e-015 -9.93923e-016 -3.97569e-016 1.27222e-014 -5.96354e-016 1.98785e-016 12.1894 25.2454 22.2491 41.4726 8.24465 5.59739 0.253455 10.6602 9.63272 3.25583 37.3372 19.1904 -3.18055e-015 2.98177e-016 -5.96354e-016 4.13804e-033 3.97569e-016 -5.96354e-016 -3.18055e-015 5.96354e-016 -1.98785e-016 -3.18055e-015 2.98177e-016 -5.96354e-016 0.0149937 -9.23865e-005 -6.73689e-006 3.18055e-015 6.95746e-016 -1.98785e-016 -3.18055e-015 2.98177e-016 -5.96354e-016 0.01898 -0.00118884 -5.90459e-005 6.89673e-034 1.98785e-016 -1.98785e-016 -3.18055e-015 2.98177e-016 -5.96354e-016 0.0122617 -0.00324463 -0.00067332 -3.18055e-015 3.97569e-016 1.98785e-016 -3.18055e-015 2.98177e-016 -5.96354e-016 4.13804e-033 3.97569e-016 -5.96354e-016 -3.18055e-015 5.96354e-016 -1.98785e-016 -132.378 -23.7886 -161.348 -169.703 59.202 164.601 -6.50796 51.7022 -4.21979 3.02124e-006 1.13222e-006 -1.41575e-007 131.606 -13.4884 171.347 172.001 54.2835 171.755 8.55541 53.0355 2.84935 1.5021e-006 2.91557e-006 6.59297e-007 
39.7624 -0.578422 8.88394 -0 -73.7749 -0 -0.0139525 2.24445 -0.10837 -0.0236801 4.48893 -0.216442 -0.0236802 4.48893 -0.216442 -1.37397e-007 17.2347 1.17365e-006 -5.8113e-008 7.84879 3.25372e-008 -9.66764 24.2199 -22.7535 -43.0196 8.42464 -5.63918 -0.907921 10.767 -10.8873 -3.90874 37.2114 -17.8823 3.18055e-015 -1.2921e-014 3.97569e-016 8.55194e-032 -1.23246e-014 3.97569e-016 4.37942e-032 -1.26228e-014 1.98785e-016 3.18055e-015 -1.2921e-014 3.97569e-016 -0.0146053 -8.96985e-005 -8.57376e-007 -0 -2.98177e-016 -0 3.18055e-015 -1.2921e-014 3.97569e-016 -0.0187649 -0.00117856 6.50393e-005 -2.22639e-014 2.98177e-016 -1.19271e-015 3.18055e-015 -1.2921e-014 3.97569e-016 -0.0122473 -0.00324124 0.000670495 6.36111e-015 3.97569e-016 -0 3.18055e-015 -1.2921e-014 3.97569e-016 8.55194e-032 -1.23246e-014 3.97569e-016 4.37942e-032 -1.26228e-014 1.98785e-016 10.7149 24.4876 22.5737 42.3885 8.37546 5.5728 0.648843 10.7342 10.6992 3.95913 37.2434 18.2092 -6.36111e-015 0 -0 -6.36111e-015 0 1.98785e-016 -6.36111e-015 -9.93923e-017 1.98785e-016 -6.36111e-015 0 -0 0.0149915 -8.94517e-005 5.61154e-008 -6.36111e-015 -5.96354e-016 -3.97569e-016 -6.36111e-015 0 -0 0.0190126 -0.00119484 -6.57453e-005 3.18055e-015 1.19271e-015 -0 -6.36111e-015 0 -0 0.0122721 -0.00324753 -0.000675681 5.31705e-007 -1.43336e-007 -7.87377e-008 -6.36111e-015 0 -0 -6.36111e-015 0 1.98785e-016 -6.36111e-015 -9.93923e-017 1.98785e-016 -132.24 -23.687 -161.475 -169.016 58.1659 162.511 -6.28117 51.6919 -4.41724 -3.30962e-006 -4.24932e-007 1.69693e-007 132.097 -14.1845 170.947 172.032 53.9975 172.3 8.48979 52.9932 2.91204 3.93476e-007 -1.79249e-007 7.31019e-007 
39.7641 -0.428451 9.00082 -0 -74.663 -0 -0.0148163 2.46635 -0.108029 -0.0250078 4.93275 -0.21572 -0.0250077 4.93274 -0.21572 1.07841e-006 16.8525 -4.672e-008 -6.11277e-008 7.27251 8.86478e-008 -8.25029 23.4697 -23.0306 -43.88 8.54987 -5.59772 -1.29748 10.8506 -11.9736 -4.62315 37.1063 -16.902 -3.18055e-015 5.96354e-016 -0 -3.18055e-015 1.98785e-016 -1.98785e-016 -3.18055e-015 7.95139e-016 -3.97569e-016 -3.18055e-015 5.96354e-016 -0 -0.0146008 -8.86438e-005 7.91947e-007 9.54166e-015 4.96962e-016 3.97569e-016 -3.18055e-015 5.96354e-016 -0 -0.0187495 -0.00117449 5.84733e-005 1.37935e-033 -3.97569e-016 1.98785e-016 -3.18055e-015 5.96354e-016 -0 -0.0122843 -0.00324975 0.000670377 3.18055e-015 -1.98785e-016 1.98785e-016 -3.18055e-015 5.96354e-016 -0 -3.18055e-015 1.98785e-016 -1.98785e-016 -3.18055e-015 7.95139e-016 -3.97569e-016 9.24994 23.7204 22.8757 43.3055 8.50596 5.54606 1.0435 10.8156 11.7671 4.65986 37.1399 17.2302 5.23254e-007 -1.39276e-007 -7.88924e-008 -3.18055e-015 -1.33186e-014 -5.96354e-016 -0 -1.36167e-014 -0 5.23254e-007 -1.39276e-007 -7.88924e-008 0.0149844 -9.08099e-005 3.74882e-006 5.21954e-007 -1.39279e-007 -7.88749e-008 5.23254e-007 -1.39276e-007 -7.88924e-008 0.018982 -0.00118921 -5.9519e-005 1.37935e-033 3.97569e-016 -1.98785e-016 5.23254e-007 -1.39276e-007 -7.88924e-008 0.0122546 -0.00324362 -0.00066913 -3.18055e-015 4.96962e-016 -5.96354e-016 5.23254e-007 -1.39276e-007 -7.88924e-008 -3.18055e-015 -1.33186e-014 -5.96354e-016 -0 -1.36167e-014 -0 -132.102 -23.5863 -161.609 -168.413 57.1184 160.491 -6.05246 51.6855 -4.61702 4.77083e-015 -3.18055e-015 -3.18055e-015 132.584 -14.8858 170.552 172.066 53.7124 172.843 8.42299 52.9511 2.97527 3.91795e-007 -1.78573e-007 7.32223e-007 
39.7656 -0.278741 9.11585 -0 -75.5517 -0 -0.0156821 2.68855 -0.107679 -0.0263431 5.37705 -0.214975 -0.0263432 5.37707 -0.214975 -3.81588e-007 16.47 2.49124e-006 -9.5405e-008 6.69538 6.05446e-008 -6.84181 22.7118 -23.2865 -44.7414 8.67454 -5.5543 -1.68599 10.9416 -13.0612 -5.33458 36.9915 -15.9243 -0 -6.95746e-016 -0 -3.18055e-015 -7.95139e-016 -3.97569e-016 -1.37935e-033 -3.97569e-016 -1.98785e-016 -0 -6.95746e-016 -0 -0.0146017 -8.82233e-005 1.25873e-006 -0 -6.95746e-016 -0 -0 -6.95746e-016 -0 -0.0187654 -0.00117569 5.39136e-005 1.37935e-033 -1.98785e-016 3.97569e-016 -0 -6.95746e-016 -0 -0.0122764 -0.00324792 0.000672478 -3.18055e-015 7.95139e-016 -0 -0 -6.95746e-016 -0 -3.18055e-015 -7.95139e-016 -3.97569e-016 -1.37935e-033 -3.97569e-016 -1.98785e-016 7.79461 22.9447 23.1551 44.2236 8.63613 5.51719 1.43718 10.9043 12.8362 5.35766 37.0268 16.2537 9.54166e-015 9.93923e-017 -1.98785e-016 3.18055e-015 0 -3.97569e-016 0 0 -3.97569e-016 9.54166e-015 9.93923e-017 -1.98785e-016 0.0149971 -8.99182e-005 3.10096e-006 -3.44836e-033 4.96962e-016 3.97569e-016 9.54166e-015 9.93923e-017 -1.98785e-016 0.0189815 -0.00118908 -6.54825e-005 -3.18055e-015 -9.93923e-017 -5.96354e-016 9.54166e-015 9.93923e-017 -1.98785e-016 0.0122758 -0.00324776 -0.000669562 5.12703e-007 -1.35317e-007 -7.88714e-008 9.54166e-015 9.93923e-017 -1.98785e-016 3.18055e-015 0 -3.97569e-016 0 0 -3.97569e-016 -131.966 -23.4867 -161.75 -167.887 56.0616 158.533 -5.82197 51.683 -4.81918 -1.34337e-008 2.88714e-006 -1.46227e-006 133.066 -15.5921 170.162 172.104 53.4283 173.384 8.35517 52.9092 3.03894 -3.90132e-007 1.77936e-007 -7.3341e-007 
39.7669 -0.129351 9.22902 -0 -76.4409 -0 -0.0165504 2.91087 -0.107317 -0.0276871 5.82177 -0.214206 -0.027687 5.82177 -0.214206 -3.0464e-007 16.0873 1.47653e-007 -3.35273e-008 6.11737 -5.20701e-008 -5.44215 21.9471 -23.5212 -45.6036 8.79864 -5.50895 -2.07326 11.0399 -14.1498 -6.04268 36.867 -14.9495 -1.06899e-030 1.23246e-014 4.96962e-015 -9.74163e-031 1.12313e-014 4.96962e-015 3.18055e-015 1.13307e-014 5.1684e-015 -1.06899e-030 1.23246e-014 4.96962e-015 -0.0146168 -9.03294e-005 4.18352e-009 -9.54166e-015 -1.98785e-016 -0 -1.06899e-030 1.23246e-014 4.96962e-015 -0.0187608 -0.00117438 5.88605e-005 6.36111e-015 -9.93923e-016 -0 -1.06899e-030 1.23246e-014 4.96962e-015 -0.0122667 -0.00324629 0.00067388 -3.18055e-015 -1.19271e-015 -1.98785e-016 -1.06899e-030 1.23246e-014 4.96962e-015 -9.74163e-031 1.12313e-014 4.96962e-015 3.18055e-015 1.13307e-014 5.1684e-015 6.34886 22.1613 23.4121 45.1427 8.76591 5.48617 1.82967 11.0003 13.9061 6.0522 36.9042 15.28 6.36111e-015 -5.96354e-016 7.95139e-016 3.18055e-015 -9.93923e-016 5.96354e-016 6.36111e-015 -7.95139e-016 5.96354e-016 6.36111e-015 -5.96354e-016 7.95139e-016 0.0149925 -9.07382e-005 -1.13979e-006 5.03019e-007 -1.32567e-007 -7.89064e-008 6.36111e-015 -5.96354e-016 7.95139e-016 0.0189966 -0.00118967 -5.49776e-005 -3.18055e-015 -9.93923e-017 -0 6.36111e-015 -5.96354e-016 7.95139e-016 0.0122847 -0.00325256 -0.000679135 -9.54166e-015 -3.97569e-016 -0 6.36111e-015 -5.96354e-016 7.95139e-016 3.18055e-015 -9.93923e-016 5.96354e-016 6.36111e-015 -7.95139e-016 5.96354e-016 -131.83 -23.3877 -161.9 -167.433 54.9974 156.633 -5.58998 51.6845 -5.02363 -8.82781e-032 -3.18055e-015 -1.59028e-015 133.545 -16.3031 169.777 172.146 53.1451 173.922 8.28624 52.8676 3.10309 -4.93855e-007 3.57486e-007 -7.34444e-007 
